<svg id="icons" xmlns="http://www.w3.org/2000/svg" viewBox="0 0 56 56"><defs><style>.cls-1{fill:#fff;}</style></defs><title>icon-graph</title><path class="cls-1" d="M237,234H186.53l8.83-20.06a3.62,3.62,0,0,0,2.07-.21l5.52,7.72A4,4,0,0,0,202,224a4,4,0,1,0,6.24-3.31l7.4-20.73c0.12,0,.23,0,0.35,0a4,4,0,0,0,1.43-.28l5.52,7.72A4,4,0,0,0,222,210a4,4,0,1,0,6.17-3.35L233.73,190l0.27,0a4,4,0,1,0-2.17-.65L226.27,206,226,206a4,4,0,0,0-1.43.28l-5.52-7.72A4,4,0,0,0,220,196a4,4,0,1,0-6.24,3.31L206.35,220c-0.12,0-.23,0-0.35,0a4,4,0,0,0-1.43.28l-5.52-7.72A4,4,0,0,0,200,210a4,4,0,1,0-6.47,3.12L186,230.24V183a1,1,0,0,0-2,0v3h-1a1,1,0,0,0,0,2h1v4h-1a1,1,0,0,0,0,2h1v4h-1a1,1,0,0,0,0,2h1v4h-1a1,1,0,0,0,0,2h1v4h-1a1,1,0,0,0,0,2h1v4h-1a1,1,0,0,0,0,2h1v4h-1a1,1,0,0,0,0,2h1v4h-1a1,1,0,0,0,0,2h1v4h-1a1,1,0,0,0,0,2h1v1a1,1,0,0,0,2,0v-1h4v1a1,1,0,0,0,2,0v-1h4v1a1,1,0,0,0,2,0v-1h4v1a1,1,0,0,0,2,0v-1h4v1a1,1,0,0,0,2,0v-1h4v1a1,1,0,0,0,2,0v-1h4v1a1,1,0,0,0,2,0v-1h4v1a1,1,0,0,0,2,0v-1h4v1a1,1,0,0,0,2,0v-1h3A1,1,0,0,0,237,234Zm-3-50a2,2,0,0,1,0,4,2,2,0,0,1-.61-0.11h0A2,2,0,0,1,234,184Zm-8,28a2,2,0,0,1-1.16-3.62h0a1.92,1.92,0,0,1,1.76-.27h0A2,2,0,0,1,226,212Zm-10-18a2,2,0,0,1,1.16,3.62h0a1.93,1.93,0,0,1-1.81.25h0A2,2,0,0,1,216,194Zm-9.34,28.12h0a2,2,0,1,1-1.86.25h0A1.93,1.93,0,0,1,206.66,222.12ZM196,208a2,2,0,0,1,1.16,3.62h0a2,2,0,0,1-2,.2h0A2,2,0,0,1,196,208Z" transform="translate(-182 -182)"/></svg>