<svg id="Ñëîé_1" data-name="Ñëîé 1" xmlns="http://www.w3.org/2000/svg" viewBox="0 0 353.04 387.15"><defs><style>.cls-1{fill:#fff;}</style></defs><title>icon-guide</title><path class="cls-1" d="M-286,97.62H-420.88a26.78,26.78,0,0,0-26.75,26.75V343.06a18.53,18.53,0,0,0,.67,4,35.41,35.41,0,0,0,1.62,4.28,30,30,0,0,0,27.64,18.45H-401a2.84,2.84,0,0,0,2.67-3,2.84,2.84,0,0,0-2.67-2.67H-417.7A24.26,24.26,0,0,1-442,339.92v0a24.26,24.26,0,0,1,24.26-24.26h152.88v48.5h-85.8a2.84,2.84,0,0,0-2.67,3,2.84,2.84,0,0,0,2.67,2.67H-262a2.84,2.84,0,0,0,2.83-2.84V124.4A26.78,26.78,0,0,0-286,97.62ZM-417.7,309.93A29.91,29.91,0,0,0-442,322.37v-198a21.11,21.11,0,0,1,21.08-21.05H-286a21.11,21.11,0,0,1,21.07,21.08V309.93H-417.7Z" transform="translate(529.94 0)"/><path class="cls-1" d="M-274.88,330.67a2.84,2.84,0,0,0,2.83-2.84,2.83,2.83,0,0,0-2.83-2.83h-144a2.84,2.84,0,0,0-2.84,2.83,2.84,2.84,0,0,0,2.84,2.84h23.23V384.3a2.83,2.83,0,0,0,2.83,2.83,2.83,2.83,0,0,0,2-.83l15.47-15.37,15.47,15.39a2.83,2.83,0,0,0,4,0,2.83,2.83,0,0,0,.83-2V330.67h80.17Zm-85.77,46.83-12.7-12.57a2.83,2.83,0,0,0-4,0L-390,377.51V330.67h29.33V377.5h0Z" transform="translate(529.94 0)"/><path class="cls-1" d="M-401,337h-17.86a2.84,2.84,0,0,0-2.84,2.84,2.84,2.84,0,0,0,2.84,2.83H-401a2.84,2.84,0,0,0,2.82-2.86h0A2.84,2.84,0,0,0-401,337Z" transform="translate(529.94 0)"/><path class="cls-1" d="M-274.88,337h-75.8a2.84,2.84,0,0,0-2.84,2.84,2.84,2.84,0,0,0,2.84,2.83h75.8a2.83,2.83,0,0,0,2.83-2.83A2.84,2.84,0,0,0-274.88,337Z" transform="translate(529.94 0)"/><path class="cls-1" d="M-401,349h-17.86a2.84,2.84,0,0,0-2.84,2.84,2.84,2.84,0,0,0,2.84,2.83H-401a2.84,2.84,0,0,0,2.82-2.86h0A2.84,2.84,0,0,0-401,349Z" transform="translate(529.94 0)"/><path class="cls-1" d="M-350.68,354.67h75.8a2.84,2.84,0,0,0,2.83-2.84,2.83,2.83,0,0,0-2.83-2.83h-75.8a2.84,2.84,0,0,0-2.84,2.83A2.84,2.84,0,0,0-350.68,354.67Z" transform="translate(529.94 0)"/><path class="cls-1" d="M-199.46,180.19c-1.42-51.26-12.2-103.48-44.51-135.78C-289.39-1-341.2-.15-353.5,0-367,.24-418.78.15-463,44.4c-32.32,32.32-43.07,84.58-44.51,135.86-13.06,6.45-22.41,23.62-22.41,43.81,0,25.7,15.15,46.53,33.84,46.53V232.67h0V177.51h-0.06c4-101.4,53.91-165.29,142.66-165.29,95.48,0,139.78,65.4,142.76,168.16v49.95h0v40.29c18.69,0,33.84-20.83,33.84-46.53C-176.88,203.8-186.31,186.62-199.46,180.19Z" transform="translate(529.94 0)"/><rect class="cls-1" x="37.41" y="156.07" width="31.87" height="143.82" rx="11.28" ry="11.28"/><rect class="cls-1" x="283.6" y="156.07" width="31.87" height="143.82" rx="11.28" ry="11.28"/><path class="cls-1" d="M-337.79,234.93a13.12,13.12,0,0,0,10,4.91,15,15,0,0,0,14.9-13c0.77-7.28-4.69-13.31-12.2-13.44-4.6,0-8.9,2.68-11.66,6.11l-19.06,21.92a35.28,35.28,0,0,1-25.53,10.87c-18,0-31.33-14.32-29.75-32.12S-393.66,188-375.64,188a29.8,29.8,0,0,1,23.22,10.57c1.38,1.66,1,2.61-.2,4l-6.4,6.85c-0.62.72-1.63,1.31-2.71-.38a17.66,17.66,0,0,0-15.12-8c-10.76,0-20.24,8.51-21.18,19.14a17.44,17.44,0,0,0,15.53,19.16,17.44,17.44,0,0,0,2.25.09,21.33,21.33,0,0,0,15.6-6.81l18.36-21A29.06,29.06,0,0,1-324,201.35c14.38,0.18,25.47,11.33,24,25.67s-13.87,24.74-28.94,24.66c-5.33-.11-12.67-2-17.75-6.69a14.83,14.83,0,0,1-2.06-2.24,1.5,1.5,0,0,1,.14-2l7.42-8.72a0.84,0.84,0,0,1,1.15-.31h0a0.84,0.84,0,0,1,.35.4,24.24,24.24,0,0,0,1.91,2.75" transform="translate(529.94 0)"/></svg>