<svg id="icons" xmlns="http://www.w3.org/2000/svg" viewBox="0 0 68.5 92.94"><defs><style>.cls-1{fill:#fff;}</style></defs><title>icon-30sec-ff</title><path class="cls-1" d="M-179.91,36.07a51,51,0,0,1,55.2-20l-13.9-9.8a1.57,1.57,0,0,1-.4-2.1,1.57,1.57,0,0,1,2.1-.4l15.6,10.9a1.57,1.57,0,0,1,.4,2.1l-10.9,15.6a1.56,1.56,0,0,1-1.2.6,1.61,1.61,0,0,1-.9-0.3,1.57,1.57,0,0,1-.4-2.1l8.3-11.9a47.88,47.88,0,0,0-51.5,19,48,48,0,0,0,1,56.4,1.46,1.46,0,0,1-.24,2.05l-0.06,0a1.61,1.61,0,0,1-.9.3,1.43,1.43,0,0,1-1.2-.6A50.72,50.72,0,0,1-179.91,36.07Z" transform="translate(189.17 -3.53)"/><path class="cls-1" d="M-160.58,71.66A10.62,10.62,0,0,0-154,74c4.17,0,5.38-2,5.38-3.89,0-2.21-1.77-4-5.94-4h-2.73V63h2.57c3.69,0,5.22-1.52,5.22-3.53,0-1.73-1.12-3.61-4.65-3.61a9.69,9.69,0,0,0-6,1.93L-161,55a13.22,13.22,0,0,1,7.26-2.13c5.22,0,7.54,2.81,7.54,6.18a5.3,5.3,0,0,1-4,5.18v0c2.4,0.56,5,2.25,5,5.82,0,4.09-3.33,6.94-8.62,6.94a13.11,13.11,0,0,1-7.9-2.33Z" transform="translate(189.17 -3.53)"/><path class="cls-1" d="M-132.87,52.85c6.3,0,8.7,5.9,8.7,12,0,6.62-2.81,12.19-8.66,12.19-5.6,0-8.8-4.94-8.8-12.19S-138.21,52.85-132.87,52.85Zm0.12,21.22c3.57,0,5.18-4,5.18-9.18,0-5.74-2-9.06-5.42-9.06-3.09,0-5.38,3.2-5.38,9,0,5.37,2,9.26,5.62,9.26h0Z" transform="translate(189.17 -3.53)"/></svg>