<svg id="icons" xmlns="http://www.w3.org/2000/svg" viewBox="0 0 40.9 40.9"><defs><style>.cls-1{fill:#fff;}</style></defs><title>icon-phone</title><path class="cls-1" d="M-43.85,29.32c-2.17,0-5.8-1.38-11.52-7.11-3.47-3.47-5.7-6.49-6.64-9-1.1-2.91-.18-4.42.47-5.07l2-2a2.84,2.84,0,0,1,4,0,2.84,2.84,0,0,1,.22.25l2.38,3.06a2.83,2.83,0,0,1,0,3.5l-0.54.68a0.84,0.84,0,0,0,.06,1.11l5.48,5.48a0.84,0.84,0,0,0,1.11.07l0.68-.54a2.83,2.83,0,0,1,3.5,0l3.06,2.38a2.84,2.84,0,0,1,.48,4,2.84,2.84,0,0,1-.22.25l-2,2h0A3.48,3.48,0,0,1-43.85,29.32ZM-42,27.68h0ZM-57.59,7.32a0.82,0.82,0,0,0-.59.25l-2,2c-0.52.52-.52,1.59,0,3s2.12,4.22,6.18,8.28C-46.86,28-43.47,27.72-42.77,27l2-2a0.84,0.84,0,0,0,0-1.19l-0.07-.06-3.06-2.46a0.83,0.83,0,0,0-1,0l-0.68.54a2.84,2.84,0,0,1-3.76-.22l-5.48-5.48a2.84,2.84,0,0,1-.22-3.76l0.54-.68a0.84,0.84,0,0,0,0-1l-2.38-3.06a0.82,0.82,0,0,0-.63-0.34h-0.07Z" transform="translate(70.96 3.13)"/><path class="cls-1" d="M-50.51,37.77A20.48,20.48,0,0,1-71,17.32,20.47,20.47,0,0,1-50.51-3.13,20.47,20.47,0,0,1-30.05,17.32,20.48,20.48,0,0,1-50.51,37.77Zm0-38.9A18.47,18.47,0,0,0-69,17.32,18.47,18.47,0,0,0-50.51,35.77,18.47,18.47,0,0,0-32.05,17.32,18.47,18.47,0,0,0-50.51-1.13Z" transform="translate(70.96 3.13)"/></svg>