<svg id="Layer_1" data-name="Layer 1" xmlns="http://www.w3.org/2000/svg" viewBox="0 0 415.42 96.9"><defs><style>.cls-1{fill:#fff;}</style></defs><title>logo-colmex</title><path class="cls-1" d="M-141,399.18c-4.45-3.28-11.52-4.1-17.79-4.1-6.43,0-13.34.82-18.4,4.08-7.23,4.82-10.74,12.06-12.54,30.35-1.48,15-.17,22.88,4.1,28,4.32,4.88,12.22,6.38,21.14,6.38a118.61,118.61,0,0,0,21.12-2.49c2.68-.61,2.92-1.5,3-2.85l0.69-7c0.21-2.16-.92-2.85-3.35-2.7-4.75.27-11.6,0.69-19.24,0.69-10.63,0-12.35-2.15-11.61-9.65l0.3-3h34.67c2.1,0,3.36-.37,3.61-2.87l1-10.15C-132.91,410.07-134.7,404-141,399.18Zm-9.34,17.7-0.73,7.43h-21.21l0.63-6.35c0.62-6.3,1.34-8.8,11.6-8.8C-150.82,409.16-149.75,410.64-150.37,416.88ZM-303.49,367.5H-314.9c-2.27,0-2.77,1.37-2.91,2.86l-7.87,79.87c-1.22,12.43,7.18,13.82,9.87,13.82a37.66,37.66,0,0,0,6.63-.84l3.87-1.1c2.3-.59,3.17-1.42,3.35-3.26l0.45-4.53c0.21-2.18-.34-2.9-2.27-3.23l-2-.55c-2.14-.48-3-1.43-2.71-4l7.49-76C-300.84,368.49-301.19,367.5-303.49,367.5Zm236.88,28.13H-79.27c-1.72,0-3.23,1.33-4.55,3.27l-13.4,18-10-18.24c-1-2-2-3.07-3.74-3.07h-12.66c-2.2,0-2.31,3.17-1.8,4l17.55,28.48-25.16,31.64a3,3,0,0,0-.86,2.21,1.52,1.52,0,0,0,1.63,1.37h13.22c2.11,0,3.93-1.57,5.1-3.27L-99.56,440l10.72,20c1,1.52,2.52,3.32,4.67,3.32h13.08c2.19,0,2.22-2.2,1.47-3.49l-19-31.63,23.17-28.49C-63.94,397.95-64.42,395.63-66.61,395.63Zm-151.87-.69h-6.68c-8.83,0-12.43,3.2-17.17,8.14-4.25-6.57-9.24-8.27-20.12-8.27h-3.62a74.75,74.75,0,0,0-19,2.22c-2.51.75-3.32,1.49-3.6,4.35l-5.8,58.87c-0.15,1.48.09,3,2.45,3h11.55c2.38,0,2.72-.92,2.91-2.86l4.86-49.27c0.1-1,1-1.79,8-1.79h2.36c6.82,0,10.44,1.82,9.55,10.85l-4,40.1c-0.15,1.48.09,3,2.45,3h11.69c2.27,0,2.58-1,2.77-2.86l4.38-44.48c0.4-4.07,1-4.84,1.63-5.37,1.32-1.18,3-1.21,6.41-1.21H-224c6.65,0,10,1.79,9.13,10.85l-4,40.1c-0.14,1.44.06,3,2.31,3h11.69c2.22,0,2.72-.89,2.91-2.86l4.25-43.11C-195.9,399.92-206.86,394.94-218.48,394.94Zm-145,1.59c-12.36-.15-22.67,5.6-29.77,13.63l-24.53,28a28.53,28.53,0,0,1-20.84,9.09c-14.38,0-25-11.49-23.75-25.67S-448.46,396-434.09,396a23.6,23.6,0,0,1,20.2,10.7c1.45,2.26,2.8,1.47,3.62.51l8.55-9.13c1.54-1.91,2.12-3.17.27-5.39a39.84,39.84,0,0,0-31-14.09c-24.07,0-45.26,19.24-47.36,43s15.68,42.82,39.75,42.82A47.18,47.18,0,0,0-406,449.91l25.46-29.22c3.69-4.57,9.43-8.15,15.58-8.15,10,0.17,17.33,8.22,16.3,17.92s-9.93,17.51-19.91,17.4c-5.27-.06-9.61-2.24-13.43-6.54a32.32,32.32,0,0,1-2.55-3.66,1.13,1.13,0,0,0-2-.12l-9.91,11.62a2,2,0,0,0-.19,2.63,19.79,19.79,0,0,0,2.76,3c6.78,6.25,16.59,8.76,23.71,8.91,20.11,0.1,36.64-14,38.66-32.92C-329.46,411.64-344.28,396.77-363.49,396.53Z" transform="translate(480 -367.5)"/></svg>